<?xml version="1.0" encoding="UTF-8" standalone="no"?>
<!-- Created with Inkscape (http://www.inkscape.org/) -->

<svg
   xmlns:dc="http://purl.org/dc/elements/1.1/"
   xmlns:cc="http://creativecommons.org/ns#"
   xmlns:rdf="http://www.w3.org/1999/02/22-rdf-syntax-ns#"
   xmlns:svg="http://www.w3.org/2000/svg"
   xmlns="http://www.w3.org/2000/svg"
   xmlns:sodipodi="http://sodipodi.sourceforge.net/DTD/sodipodi-0.dtd"
   xmlns:inkscape="http://www.inkscape.org/namespaces/inkscape"
   width="640"
   height="480"
   id="svg2"
   version="1.1"
   inkscape:version="0.48.0 r9654"
   sodipodi:docname="AbstractFactory.svg"
   inkscape:export-filename="/home/egon/Documents/patterns-irl/Design Patterns/Creational/images/AbstractFactory.png"
   inkscape:export-xdpi="133.61"
   inkscape:export-ydpi="133.61">
  <defs
     id="defs4" />
  <sodipodi:namedview
     id="base"
     pagecolor="#ffff99"
     bordercolor="#666666"
     borderopacity="1.0"
     inkscape:pageopacity="1"
     inkscape:pageshadow="2"
     inkscape:zoom="1.4"
     inkscape:cx="354.71746"
     inkscape:cy="267.714"
     inkscape:document-units="px"
     inkscape:current-layer="layer1"
     showgrid="false"
     showguides="true"
     inkscape:guide-bbox="true"
     inkscape:window-width="1600"
     inkscape:window-height="1175"
     inkscape:window-x="1280"
     inkscape:window-y="0"
     inkscape:window-maximized="1" />
  <metadata
     id="metadata7">
    <rdf:RDF>
      <cc:Work
         rdf:about="">
        <dc:format>image/svg+xml</dc:format>
        <dc:type
           rdf:resource="http://purl.org/dc/dcmitype/StillImage" />
        <dc:title></dc:title>
      </cc:Work>
    </rdf:RDF>
  </metadata>
  <g
     inkscape:label="Layer 1"
     inkscape:groupmode="layer"
     id="layer1"
     transform="translate(0,-572.36218)">
    <g
       id="g4193"
       transform="matrix(0.07295273,0.31451209,-0.35990256,0.06375201,194.00439,741.69961)"
       style="fill:#339900">
      <path
         sodipodi:nodetypes="ccccc"
         inkscape:connector-curvature="0"
         id="rect4185"
         d="m 255.77979,-128.86922 c 14.97144,31.92207 130.14125,58.883786 175.76898,45.44226 l -5.12019,16.99839 c -56.61443,13.95512 -165.26496,1.295522 -195.24237,-38.46746 z"
         style="fill:#339900;fill-opacity:1;stroke:#000000;stroke-width:8.73909472999999792;stroke-linecap:round;stroke-linejoin:round;stroke-miterlimit:4;stroke-opacity:1"
         transform="translate(0,572.36218)" />
      <path
         sodipodi:nodetypes="cccc"
         inkscape:connector-curvature="0"
         id="rect4189"
         d="m 415.23969,467.72071 38.08873,25.27934 -25.27934,38.08873 z"
         style="fill:#339900;fill-opacity:1;stroke:#000000;stroke-width:8.73909472999999792;stroke-linecap:round;stroke-linejoin:round;stroke-miterlimit:4;stroke-opacity:1" />
    </g>
    <rect
       y="761.26489"
       x="129.63293"
       height="44.819614"
       width="22.234749"
       id="rect4163"
       style="fill:#eeeeee;fill-opacity:1;stroke:#1a1a1a;stroke-width:3;stroke-linecap:round;stroke-linejoin:round;stroke-miterlimit:4;stroke-opacity:1;stroke-dasharray:none" />
    <rect
       y="600.63092"
       x="116.78945"
       height="59.303993"
       width="20.878971"
       id="rect3015"
       style="fill:#336699;fill-opacity:1;stroke:#1a1a1a;stroke-width:3;stroke-linecap:round;stroke-linejoin:round;stroke-miterlimit:4;stroke-opacity:1;stroke-dasharray:none" />
    <rect
       style="fill:#336699;fill-opacity:1;stroke:#1a1a1a;stroke-width:3;stroke-linecap:round;stroke-linejoin:round;stroke-miterlimit:4;stroke-opacity:1;stroke-dasharray:none"
       id="rect3013"
       width="22.234749"
       height="44.819614"
       x="130.34721"
       y="617.30151" />
    <rect
       style="fill:#336699;fill-opacity:1;stroke:#1a1a1a;stroke-width:3;stroke-linecap:round;stroke-linejoin:round;stroke-miterlimit:4;stroke-opacity:1;stroke-dasharray:none"
       id="rect2991"
       width="108.13903"
       height="58.662991"
       x="57.216213"
       y="650.87506" />
    <path
       style="fill:#ccff99;fill-opacity:1;stroke:#1a1a1a;stroke-width:3;stroke-linecap:round;stroke-linejoin:round;stroke-miterlimit:4;stroke-opacity:1;stroke-dasharray:none"
       d="m 334.55169,631.75886 0,13.5672 -139.59653,0 0,36.3432 139.59653,0 0,13.56719 50.64511,-31.7388 -50.64511,-31.73879 z"
       id="rect3003"
       inkscape:connector-curvature="0" />
    <text
       xml:space="preserve"
       style="font-size:23.22498894px;font-style:normal;font-variant:normal;font-weight:normal;font-stretch:normal;line-height:125%;letter-spacing:0px;word-spacing:0px;fill:#eeeeee;fill-opacity:1;stroke:none;font-family:Droid Sans Mono;-inkscape-font-specification:Droid Sans Mono"
       x="62.751492"
       y="683.29852"
       id="text3009"
       sodipodi:linespacing="125%"
       transform="scale(0.99608657,1.0039288)"><tspan
         sodipodi:role="line"
         id="tspan3011"
         x="62.751492"
         y="683.29852">Factory</tspan></text>
    <rect
       style="fill:#336699;fill-opacity:1;stroke:#1a1a1a;stroke-width:3;stroke-linecap:round;stroke-linejoin:round;stroke-miterlimit:4;stroke-opacity:1;stroke-dasharray:none"
       id="rect3017"
       width="189.123"
       height="78.094261"
       x="417.40799"
       y="619.88116" />
    <text
       xml:space="preserve"
       style="font-size:47.15584946px;font-style:normal;font-variant:normal;font-weight:normal;font-stretch:normal;line-height:125%;letter-spacing:0px;word-spacing:0px;fill:#eeeeee;fill-opacity:1;stroke:none;font-family:Droid Sans Mono;-inkscape-font-specification:Droid Sans Mono"
       x="350.98129"
       y="733.75269"
       id="text3019"
       sodipodi:linespacing="125%"
       transform="matrix(0.99046907,-0.12915013,0.12884401,0.9928223,0,0)"><tspan
         sodipodi:role="line"
         id="tspan3021"
         x="350.98129"
         y="733.75269">Thing</tspan></text>
    <text
       xml:space="preserve"
       style="font-size:17.97601128px;font-style:normal;font-variant:normal;font-weight:normal;font-stretch:normal;line-height:125%;letter-spacing:0px;word-spacing:0px;fill:#000000;fill-opacity:1;stroke:none;font-family:Droid Sans Mono;-inkscape-font-specification:Droid Sans Mono"
       x="200.39624"
       y="668.0708"
       id="text3023"
       sodipodi:linespacing="125%"
       transform="scale(0.9988142,1.0011872)"><tspan
         sodipodi:role="line"
         id="tspan3025"
         x="200.39624"
         y="668.0708">f.createThing()</tspan></text>
    <path
       inkscape:connector-curvature="0"
       id="path3811"
       d="m 334.55169,924.78932 0,13.5672 -139.59653,0 0,36.3432 139.59653,0 0,13.56719 50.64511,-31.7388 -50.64511,-31.73879 z"
       style="fill:#ccff99;fill-opacity:1;stroke:#1a1a1a;stroke-width:3;stroke-linecap:round;stroke-linejoin:round;stroke-miterlimit:4;stroke-opacity:1;stroke-dasharray:none" />
    <rect
       y="919.26837"
       x="417.40799"
       height="78.094261"
       width="189.123"
       id="rect3813"
       style="fill:#339900;fill-opacity:1;stroke:#1a1a1a;stroke-width:3;stroke-linecap:round;stroke-linejoin:round;stroke-miterlimit:4;stroke-opacity:1;stroke-dasharray:none" />
    <text
       transform="matrix(0.99046907,-0.12915013,0.12884401,0.9928223,0,0)"
       sodipodi:linespacing="125%"
       id="text3815"
       y="1030.2865"
       x="312.40704"
       style="font-size:47.15584946px;font-style:normal;font-variant:normal;font-weight:normal;font-stretch:normal;line-height:125%;letter-spacing:0px;word-spacing:0px;fill:#eeeeee;fill-opacity:1;stroke:none;font-family:Droid Sans Mono;-inkscape-font-specification:Droid Sans Mono"
       xml:space="preserve"><tspan
         y="1030.2865"
         x="312.40704"
         id="tspan3817"
         sodipodi:role="line">Thing</tspan></text>
    <text
       transform="scale(0.9988142,1.0011872)"
       sodipodi:linespacing="125%"
       id="text3819"
       y="960.75372"
       x="200.39624"
       style="font-size:17.97601128px;font-style:normal;font-variant:normal;font-weight:normal;font-stretch:normal;line-height:125%;letter-spacing:0px;word-spacing:0px;fill:#000000;fill-opacity:1;stroke:none;font-family:Droid Sans Mono;-inkscape-font-specification:Droid Sans Mono"
       xml:space="preserve"><tspan
         y="960.75372"
         x="200.39624"
         id="tspan3821"
         sodipodi:role="line">f.createThing()</tspan></text>
    <path
       transform="matrix(0.64478684,0,0,0.64832296,-119.80434,538.35297)"
       d="m 373.57143,55.357143 c 0,8.876005 -7.19543,16.071429 -16.07143,16.071429 -8.876,0 -16.07143,-7.195424 -16.07143,-16.071429 0,-8.876004 7.19543,-16.071428 16.07143,-16.071428 8.876,0 16.07143,7.195424 16.07143,16.071428 z"
       sodipodi:ry="16.071428"
       sodipodi:rx="16.071428"
       sodipodi:cy="55.357143"
       sodipodi:cx="357.5"
       id="use3993"
       style="opacity:0.68464732;fill:#eeeeee;fill-opacity:1;stroke:#cccccf;stroke-width:4.63999414;stroke-linecap:round;stroke-linejoin:round;stroke-miterlimit:4;stroke-opacity:1;stroke-dasharray:none"
       sodipodi:type="arc" />
    <path
       transform="matrix(0.64478684,0,0,0.64832296,-98.087066,549.69775)"
       d="m 373.57143,55.357143 c 0,8.876005 -7.19543,16.071429 -16.07143,16.071429 -8.876,0 -16.07143,-7.195424 -16.07143,-16.071429 0,-8.876004 7.19543,-16.071428 16.07143,-16.071428 8.876,0 16.07143,7.195424 16.07143,16.071428 z"
       sodipodi:ry="16.071428"
       sodipodi:rx="16.071428"
       sodipodi:cy="55.357143"
       sodipodi:cx="357.5"
       id="use4015"
       style="opacity:0.68464732;fill:#eeeeee;fill-opacity:1;stroke:#cccccf;stroke-width:4.63999414;stroke-linecap:round;stroke-linejoin:round;stroke-miterlimit:4;stroke-opacity:1;stroke-dasharray:none"
       sodipodi:type="arc" />
    <path
       transform="matrix(0.64478684,0,0,0.64832296,-104.30521,529.35914)"
       d="m 373.57143,55.357143 c 0,8.876005 -7.19543,16.071429 -16.07143,16.071429 -8.876,0 -16.07143,-7.195424 -16.07143,-16.071429 0,-8.876004 7.19543,-16.071428 16.07143,-16.071428 8.876,0 16.07143,7.195424 16.07143,16.071428 z"
       sodipodi:ry="16.071428"
       sodipodi:rx="16.071428"
       sodipodi:cy="55.357143"
       sodipodi:cx="357.5"
       id="use4017"
       style="opacity:0.68464732;fill:#eeeeee;fill-opacity:1;stroke:#cccccf;stroke-width:4.63999414;stroke-linecap:round;stroke-linejoin:round;stroke-miterlimit:4;stroke-opacity:1;stroke-dasharray:none"
       sodipodi:type="arc" />
    <path
       transform="matrix(0.64478684,0,0,0.64832296,-87.250972,537.36792)"
       d="m 373.57143,55.357143 c 0,8.876005 -7.19543,16.071429 -16.07143,16.071429 -8.876,0 -16.07143,-7.195424 -16.07143,-16.071429 0,-8.876004 7.19543,-16.071428 16.07143,-16.071428 8.876,0 16.07143,7.195424 16.07143,16.071428 z"
       sodipodi:ry="16.071428"
       sodipodi:rx="16.071428"
       sodipodi:cy="55.357143"
       sodipodi:cx="357.5"
       id="use4019"
       style="opacity:0.68464732;fill:#eeeeee;fill-opacity:1;stroke:#cccccf;stroke-width:4.63999414;stroke-linecap:round;stroke-linejoin:round;stroke-miterlimit:4;stroke-opacity:1;stroke-dasharray:none"
       sodipodi:type="arc" />
    <path
       transform="matrix(0.64478684,0,0,0.64832296,-101.88639,513.73229)"
       d="m 373.57143,55.357143 c 0,8.876005 -7.19543,16.071429 -16.07143,16.071429 -8.876,0 -16.07143,-7.195424 -16.07143,-16.071429 0,-8.876004 7.19543,-16.071428 16.07143,-16.071428 8.876,0 16.07143,7.195424 16.07143,16.071428 z"
       sodipodi:ry="16.071428"
       sodipodi:rx="16.071428"
       sodipodi:cy="55.357143"
       sodipodi:cx="357.5"
       id="use4025"
       style="opacity:0.68464732;fill:#eeeeee;fill-opacity:1;stroke:#cccccf;stroke-width:4.63999414;stroke-linecap:round;stroke-linejoin:round;stroke-miterlimit:4;stroke-opacity:1;stroke-dasharray:none"
       sodipodi:type="arc" />
    <path
       transform="matrix(0.64478684,0,0,0.64832296,-117.2113,502.32725)"
       d="m 373.57143,55.357143 c 0,8.876005 -7.19543,16.071429 -16.07143,16.071429 -8.876,0 -16.07143,-7.195424 -16.07143,-16.071429 0,-8.876004 7.19543,-16.071428 16.07143,-16.071428 8.876,0 16.07143,7.195424 16.07143,16.071428 z"
       sodipodi:ry="16.071428"
       sodipodi:rx="16.071428"
       sodipodi:cy="55.357143"
       sodipodi:cx="357.5"
       id="use4029"
       style="opacity:0.68464732;fill:#eeeeee;fill-opacity:1;stroke:#cccccf;stroke-width:4.63999414;stroke-linecap:round;stroke-linejoin:round;stroke-miterlimit:4;stroke-opacity:1;stroke-dasharray:none"
       sodipodi:type="arc" />
    <path
       inkscape:connector-curvature="0"
       id="path4123"
       d="m 334.55169,773.18743 0,13.5672 -139.59653,0 0,36.3432 139.59653,0 0,13.56719 50.64511,-31.7388 -50.64511,-31.73879 z"
       style="fill:#eeeeee;fill-opacity:1;stroke:#1a1a1a;stroke-width:3;stroke-linecap:round;stroke-linejoin:round;stroke-miterlimit:4;stroke-opacity:1;stroke-dasharray:none" />
    <rect
       y="766.30975"
       x="417.40799"
       height="78.094261"
       width="189.123"
       id="rect4125"
       style="fill:#eeeeee;fill-opacity:1;stroke:#1a1a1a;stroke-width:3;stroke-linecap:round;stroke-linejoin:round;stroke-miterlimit:4;stroke-opacity:1;stroke-dasharray:none"
       ry="39.047131" />
    <text
       transform="matrix(0.99046907,-0.12915013,0.12884401,0.9928223,0,0)"
       sodipodi:linespacing="125%"
       id="text4127"
       y="857.13684"
       x="346.18863"
       style="font-size:24.49926949px;font-style:normal;font-variant:normal;font-weight:normal;font-stretch:normal;line-height:125%;letter-spacing:0px;word-spacing:0px;fill:#333333;fill-opacity:1;stroke:none;font-family:Droid Sans Mono;-inkscape-font-specification:Droid Sans Mono"
       xml:space="preserve"><tspan
         y="857.13684"
         x="346.18863"
         id="tspan4129"
         sodipodi:role="line">Abstract</tspan><tspan
         y="887.76093"
         x="346.18863"
         sodipodi:role="line"
         id="tspan4365"> Thing</tspan></text>
    <text
       transform="scale(0.9988142,1.0011872)"
       sodipodi:linespacing="125%"
       id="text4131"
       y="809.33167"
       x="200.39624"
       style="font-size:17.97601128px;font-style:normal;font-variant:normal;font-weight:normal;font-stretch:normal;line-height:125%;letter-spacing:0px;word-spacing:0px;fill:#333333;fill-opacity:1;stroke:none;font-family:Droid Sans Mono;-inkscape-font-specification:Droid Sans Mono"
       xml:space="preserve"><tspan
         y="809.33167"
         x="200.39624"
         id="tspan4133"
         sodipodi:role="line">f.createThing()</tspan></text>
    <rect
       style="fill:#339900;fill-opacity:1;stroke:#1a1a1a;stroke-width:3;stroke-linecap:round;stroke-linejoin:round;stroke-miterlimit:4;stroke-opacity:1;stroke-dasharray:none"
       id="rect4137"
       width="20.878971"
       height="26.330687"
       x="69.636833"
       y="925.36475" />
    <rect
       y="909.06207"
       x="129.63293"
       height="44.819614"
       width="22.234749"
       id="rect4139"
       style="fill:#339900;fill-opacity:1;stroke:#1a1a1a;stroke-width:3;stroke-linecap:round;stroke-linejoin:round;stroke-miterlimit:4;stroke-opacity:1;stroke-dasharray:none" />
    <rect
       y="908.30963"
       x="79.83062"
       height="43.385849"
       width="20.878971"
       id="rect4165"
       style="fill:#339900;fill-opacity:1;stroke:#1a1a1a;stroke-width:3;stroke-linecap:round;stroke-linejoin:round;stroke-miterlimit:4;stroke-opacity:1;stroke-dasharray:none" />
    <rect
       y="942.63556"
       x="56.50193"
       height="58.662991"
       width="108.13903"
       id="rect4141"
       style="fill:#339900;fill-opacity:1;stroke:#1a1a1a;stroke-width:3;stroke-linecap:round;stroke-linejoin:round;stroke-miterlimit:4;stroke-opacity:1;stroke-dasharray:none" />
    <text
       transform="scale(0.99608657,1.0039288)"
       sodipodi:linespacing="125%"
       id="text4143"
       y="973.91724"
       x="62.034401"
       style="font-size:23.22498894px;font-style:normal;font-variant:normal;font-weight:normal;font-stretch:normal;line-height:125%;letter-spacing:0px;word-spacing:0px;fill:#eeeeee;fill-opacity:1;stroke:none;font-family:Droid Sans Mono;-inkscape-font-specification:Droid Sans Mono"
       xml:space="preserve"><tspan
         y="973.91724"
         x="62.034401"
         id="tspan4145"
         sodipodi:role="line">Factory</tspan></text>
    <path
       sodipodi:type="arc"
       style="opacity:0.68464732;fill:#eeeeee;fill-opacity:1;stroke:#cccccf;stroke-width:4.63999414;stroke-linecap:round;stroke-linejoin:round;stroke-miterlimit:4;stroke-opacity:1;stroke-dasharray:none"
       id="path4147"
       sodipodi:cx="357.5"
       sodipodi:cy="55.357143"
       sodipodi:rx="16.071428"
       sodipodi:ry="16.071428"
       d="m 373.57143,55.357143 c 0,8.876005 -7.19543,16.071429 -16.07143,16.071429 -8.876,0 -16.07143,-7.195424 -16.07143,-16.071429 0,-8.876004 7.19543,-16.071428 16.07143,-16.071428 8.876,0 16.07143,7.195424 16.07143,16.071428 z"
       transform="matrix(0.64478684,0,0,0.64832296,-69.549724,849.44268)" />
    <path
       sodipodi:type="arc"
       style="opacity:0.68464732;fill:#eeeeee;fill-opacity:1;stroke:#cccccf;stroke-width:4.63999414;stroke-linecap:round;stroke-linejoin:round;stroke-miterlimit:4;stroke-opacity:1;stroke-dasharray:none"
       id="path4149"
       sodipodi:cx="357.5"
       sodipodi:cy="55.357143"
       sodipodi:rx="16.071428"
       sodipodi:ry="16.071428"
       d="m 373.57143,55.357143 c 0,8.876005 -7.19543,16.071429 -16.07143,16.071429 -8.876,0 -16.07143,-7.195424 -16.07143,-16.071429 0,-8.876004 7.19543,-16.071428 16.07143,-16.071428 8.876,0 16.07143,7.195424 16.07143,16.071428 z"
       transform="matrix(0.64478684,0,0,0.64832296,-97.668704,851.69138)" />
    <path
       sodipodi:type="arc"
       style="opacity:0.68464732;fill:#eeeeee;fill-opacity:1;stroke:#cccccf;stroke-width:4.63999414;stroke-linecap:round;stroke-linejoin:round;stroke-miterlimit:4;stroke-opacity:1;stroke-dasharray:none"
       id="path4153"
       sodipodi:cx="357.5"
       sodipodi:cy="55.357143"
       sodipodi:rx="16.071428"
       sodipodi:ry="16.071428"
       d="m 373.57143,55.357143 c 0,8.876005 -7.19543,16.071429 -16.07143,16.071429 -8.876,0 -16.07143,-7.195424 -16.07143,-16.071429 0,-8.876004 7.19543,-16.071428 16.07143,-16.071428 8.876,0 16.07143,7.195424 16.07143,16.071428 z"
       transform="matrix(0.64478684,0,0,0.64832296,-87.965254,863.23877)" />
    <rect
       y="779.48877"
       x="56.50193"
       height="58.662991"
       width="108.13903"
       id="rect4159"
       style="fill:#eeeeee;fill-opacity:1;stroke:#1a1a1a;stroke-width:3;stroke-linecap:round;stroke-linejoin:round;stroke-miterlimit:4;stroke-opacity:1;stroke-dasharray:none"
       ry="15.714286" />
    <text
       xml:space="preserve"
       style="font-size:18.69474602px;font-style:normal;font-variant:normal;font-weight:normal;font-stretch:normal;line-height:125%;letter-spacing:0px;word-spacing:0px;fill:#333333;fill-opacity:1;stroke:none;font-family:Droid Sans Mono;-inkscape-font-specification:Droid Sans Mono"
       x="66.458977"
       y="798.90656"
       id="text4167"
       sodipodi:linespacing="125%"
       transform="scale(0.99608657,1.0039288)"><tspan
         sodipodi:role="line"
         id="tspan4169"
         x="66.458977"
         y="798.90656">Abstract</tspan><tspan
         sodipodi:role="line"
         x="66.458977"
         y="822.27496"
         id="tspan4171">Factory</tspan></text>
    <path
       transform="matrix(0.64478684,0,0,0.64832296,-161.69258,868.01411)"
       d="m 373.57143,55.357143 c 0,8.876005 -7.19543,16.071429 -16.07143,16.071429 -8.876,0 -16.07143,-7.195424 -16.07143,-16.071429 0,-8.876004 7.19543,-16.071428 16.07143,-16.071428 8.876,0 16.07143,7.195424 16.07143,16.071428 z"
       sodipodi:ry="16.071428"
       sodipodi:rx="16.071428"
       sodipodi:cy="55.357143"
       sodipodi:cx="357.5"
       id="path4173"
       style="opacity:0.68464732;fill:#eeeeee;fill-opacity:1;stroke:#cccccf;stroke-width:4.63999414;stroke-linecap:round;stroke-linejoin:round;stroke-miterlimit:4;stroke-opacity:1;stroke-dasharray:none"
       sodipodi:type="arc" />
    <path
       sodipodi:type="arc"
       style="opacity:0.68464732;fill:#eeeeee;fill-opacity:1;stroke:#cccccf;stroke-width:3.45524836;stroke-linecap:round;stroke-linejoin:round;stroke-miterlimit:4;stroke-opacity:1;stroke-dasharray:none"
       id="path4175"
       sodipodi:cx="357.5"
       sodipodi:cy="55.357143"
       sodipodi:rx="16.071428"
       sodipodi:ry="16.071428"
       d="m 373.57143,55.357143 c 0,8.876005 -7.19543,16.071429 -16.07143,16.071429 -8.876,0 -16.07143,-7.195424 -16.07143,-16.071429 0,-8.876004 7.19543,-16.071428 16.07143,-16.071428 8.876,0 16.07143,7.195424 16.07143,16.071428 z"
       transform="matrix(0.86594954,0,0,0.87054519,-226.48956,839.28395)" />
    <g
       transform="matrix(0.07295273,-0.31451209,-0.35990256,-0.06375201,192.99424,887.9097)"
       id="g4197"
       style="fill:#6699cc">
      <path
         transform="translate(0,572.36218)"
         style="fill:#6699cc;fill-opacity:1;stroke:#000000;stroke-width:8.73909472999999970;stroke-linecap:round;stroke-linejoin:round;stroke-miterlimit:4;stroke-opacity:1"
         d="m 255.77979,-128.86922 c 14.97144,31.92207 130.14125,58.883786 175.76898,45.44226 l -5.12019,16.99839 c -56.61443,13.95512 -165.26496,1.295522 -195.24237,-38.46746 z"
         id="path4199"
         inkscape:connector-curvature="0"
         sodipodi:nodetypes="ccccc" />
      <path
         style="fill:#6699cc;fill-opacity:1;stroke:#000000;stroke-width:8.73909472999999970;stroke-linecap:round;stroke-linejoin:round;stroke-miterlimit:4;stroke-opacity:1"
         d="m 415.23969,467.72071 38.08873,25.27934 -25.27934,38.08873 z"
         id="path4201"
         inkscape:connector-curvature="0"
         sodipodi:nodetypes="cccc" />
    </g>
    <g
       style="fill:#6699cc"
       id="g4203"
       transform="matrix(0.07295273,-0.31451209,-0.35990256,-0.06375201,560.13709,880.76684)">
      <path
         sodipodi:nodetypes="ccccc"
         inkscape:connector-curvature="0"
         id="path4205"
         d="m 255.77979,-128.86922 c 14.97144,31.92207 130.14125,58.883786 175.76898,45.44226 l -5.12019,16.99839 c -56.61443,13.95512 -165.26496,1.295522 -195.24237,-38.46746 z"
         style="fill:#6699cc;fill-opacity:1;stroke:#000000;stroke-width:8.73909473;stroke-linecap:round;stroke-linejoin:round;stroke-miterlimit:4;stroke-opacity:1"
         transform="translate(0,572.36218)" />
      <path
         sodipodi:nodetypes="cccc"
         inkscape:connector-curvature="0"
         id="path4207"
         d="m 415.23969,467.72071 38.08873,25.27934 -25.27934,38.08873 z"
         style="fill:#6699cc;fill-opacity:1;stroke:#000000;stroke-width:8.73909473;stroke-linecap:round;stroke-linejoin:round;stroke-miterlimit:4;stroke-opacity:1" />
    </g>
    <g
       style="fill:#339900"
       transform="matrix(0.07295273,0.31451209,-0.35990256,0.06375201,560.43297,735.98533)"
       id="g4209">
      <path
         transform="translate(0,572.36218)"
         style="fill:#339900;fill-opacity:1;stroke:#000000;stroke-width:8.73909473;stroke-linecap:round;stroke-linejoin:round;stroke-miterlimit:4;stroke-opacity:1"
         d="m 255.77979,-128.86922 c 14.97144,31.92207 130.14125,58.883786 175.76898,45.44226 l -5.12019,16.99839 c -56.61443,13.95512 -165.26496,1.295522 -195.24237,-38.46746 z"
         id="path4211"
         inkscape:connector-curvature="0"
         sodipodi:nodetypes="ccccc" />
      <path
         style="fill:#339900;fill-opacity:1;stroke:#000000;stroke-width:8.73909473;stroke-linecap:round;stroke-linejoin:round;stroke-miterlimit:4;stroke-opacity:1"
         d="m 415.23969,467.72071 38.08873,25.27934 -25.27934,38.08873 z"
         id="path4213"
         inkscape:connector-curvature="0"
         sodipodi:nodetypes="cccc" />
    </g>
  </g>
</svg>
