<?xml version="1.0" encoding="UTF-8" standalone="no"?>
<!-- Created with Inkscape (http://www.inkscape.org/) -->

<svg
   xmlns:dc="http://purl.org/dc/elements/1.1/"
   xmlns:cc="http://creativecommons.org/ns#"
   xmlns:rdf="http://www.w3.org/1999/02/22-rdf-syntax-ns#"
   xmlns:svg="http://www.w3.org/2000/svg"
   xmlns="http://www.w3.org/2000/svg"
   xmlns:sodipodi="http://sodipodi.sourceforge.net/DTD/sodipodi-0.dtd"
   xmlns:inkscape="http://www.inkscape.org/namespaces/inkscape"
   width="640"
   height="480"
   id="svg2"
   version="1.1"
   inkscape:version="0.48.2 r9819"
   sodipodi:docname="Composite.svg"
   inkscape:export-filename="/home/egon/Documents/patterns-irl/Design Patterns/Creational/images/FactoryMethod.png"
   inkscape:export-xdpi="90"
   inkscape:export-ydpi="90">
  <defs
     id="defs4" />
  <sodipodi:namedview
     id="base"
     pagecolor="#ffff99"
     bordercolor="#666666"
     borderopacity="1.0"
     inkscape:pageopacity="1"
     inkscape:pageshadow="2"
     inkscape:zoom="0.98994949"
     inkscape:cx="76.762677"
     inkscape:cy="281.2116"
     inkscape:document-units="px"
     inkscape:current-layer="layer1"
     showgrid="false"
     showguides="true"
     inkscape:guide-bbox="true"
     inkscape:window-width="1920"
     inkscape:window-height="1028"
     inkscape:window-x="-8"
     inkscape:window-y="-8"
     inkscape:window-maximized="1" />
  <metadata
     id="metadata7">
    <rdf:RDF>
      <cc:Work
         rdf:about="">
        <dc:format>image/svg+xml</dc:format>
        <dc:type
           rdf:resource="http://purl.org/dc/dcmitype/StillImage" />
        <dc:title />
      </cc:Work>
    </rdf:RDF>
  </metadata>
  <g
     inkscape:label="Layer 1"
     inkscape:groupmode="layer"
     id="layer1"
     transform="translate(0,-572.36218)">
    <path
       sodipodi:type="star"
       style="fill:#339900;fill-opacity:1;stroke:#000000;stroke-width:7.12521172;stroke-linejoin:round;stroke-miterlimit:4;stroke-opacity:1;stroke-dasharray:none;stroke-dashoffset:0"
       id="path3809"
       sodipodi:sides="3"
       sodipodi:cx="-120.71429"
       sodipodi:cy="187.85715"
       sodipodi:r1="143.65846"
       sodipodi:r2="54.548"
       sodipodi:arg1="-1.5707963"
       sodipodi:arg2="-0.52359875"
       inkscape:flatsided="false"
       inkscape:rounded="0.1"
       inkscape:randomized="0"
       d="m -120.71428,44.198685 c 12.56063,0 40.95963,105.506635 47.239948,116.384465 6.280317,10.87783 83.4522393,88.2254 77.1719213,99.10323 -6.280318,10.87783 -111.8512393,-17.28123 -124.4118793,-17.28123 -12.56063,0 -118.13156,28.15905 -124.41188,17.28123 -6.28031,-10.87783 70.89161,-88.2254 77.17193,-99.10323 6.28032,-10.87783 34.67932,-116.384466 47.23996,-116.384465 z"
       transform="matrix(0.35919544,-0.21995201,0.21952461,0.35910778,70.187333,785.25366)"
       inkscape:transform-center-y="1.3851844"
       inkscape:transform-center-x="-14.360784" />
    <g
       id="g3016"
       transform="translate(45,35.714286)">
      <path
         inkscape:transform-center-x="-0.83400156"
         inkscape:transform-center-y="-19.935493"
         transform="matrix(0.28013504,0.48599107,0.48520811,-0.28058708,38.597146,785.68747)"
         d="m -120.71428,44.198685 c 12.44521,0 53.242514,98.548385 59.46512,109.326255 6.222606,10.77787 71.1693558,95.38357 64.9467493,106.16144 -6.2226065,10.77787 -111.9666693,-3.16482 -124.4118793,-3.16482 -12.44521,0 -118.18927,13.94269 -124.41188,3.16482 -6.2226,-10.77788 58.72415,-95.38357 64.94676,-106.16144 6.2226,-10.77787 47.01991,-109.326256 59.46513,-109.326255 z"
         inkscape:randomized="0"
         inkscape:rounded="0.1"
         inkscape:flatsided="false"
         sodipodi:arg2="-0.52359875"
         sodipodi:arg1="-1.5707963"
         sodipodi:r2="68.664413"
         sodipodi:r1="143.65846"
         sodipodi:cy="187.85715"
         sodipodi:cx="-120.71429"
         sodipodi:sides="3"
         id="path3012"
         style="fill:#eeeeee;fill-opacity:1;stroke:#000000;stroke-width:5.35024548;stroke-linejoin:round;stroke-miterlimit:4;stroke-opacity:1;stroke-dasharray:none;stroke-dashoffset:0"
         sodipodi:type="star" />
      <text
         xml:space="preserve"
         style="font-size:17.83612442px;font-style:normal;font-variant:normal;font-weight:normal;font-stretch:normal;line-height:125%;letter-spacing:0px;word-spacing:0px;fill:#333333;fill-opacity:1;stroke:none;font-family:Droid Sans Mono;-inkscape-font-specification:Droid Sans Mono"
         x="-26.252268"
         y="680.73358"
         id="text4127"
         sodipodi:linespacing="125%"
         transform="matrix(0.99046907,-0.12915013,0.12884401,0.9928223,0,0)"><tspan
           sodipodi:role="line"
           id="tspan4129"
           x="-26.252268"
           y="680.73358">Abstract</tspan><tspan
           id="tspan4365"
           sodipodi:role="line"
           x="-26.252268"
           y="703.02875"> Thing</tspan></text>
    </g>
    <g
       style="fill:#6699cc"
       id="g4203"
       transform="matrix(-0.07295273,0.31451209,0.35990256,0.06375201,71.589412,653.94744)">
      <path
         sodipodi:nodetypes="ccccc"
         inkscape:connector-curvature="0"
         id="path4205"
         d="m 255.77979,-128.86922 c 14.97144,31.92207 130.14125,58.883786 175.76898,45.44226 l -5.12019,16.99839 c -56.61443,13.95512 -165.26496,1.295522 -195.24237,-38.46746 z"
         style="fill:#6699cc;fill-opacity:1;stroke:#000000;stroke-width:8.73909473;stroke-linecap:round;stroke-linejoin:round;stroke-miterlimit:4;stroke-opacity:1"
         transform="translate(0,572.36218)" />
      <path
         sodipodi:nodetypes="cccc"
         inkscape:connector-curvature="0"
         id="path4207"
         d="m 415.23969,467.72071 38.08873,25.27934 -25.27934,38.08873 z"
         style="fill:#6699cc;fill-opacity:1;stroke:#000000;stroke-width:8.73909473;stroke-linecap:round;stroke-linejoin:round;stroke-miterlimit:4;stroke-opacity:1" />
    </g>
    <g
       style="fill:#339900"
       transform="matrix(0.07295273,0.31451209,-0.35990256,0.06375201,210.55345,654.25715)"
       id="g4209">
      <path
         transform="translate(0,572.36218)"
         style="fill:#339900;fill-opacity:1;stroke:#000000;stroke-width:8.73909473;stroke-linecap:round;stroke-linejoin:round;stroke-miterlimit:4;stroke-opacity:1"
         d="m 255.77979,-128.86922 c 14.97144,31.92207 130.14125,58.883786 175.76898,45.44226 l -5.12019,16.99839 c -56.61443,13.95512 -165.26496,1.295522 -195.24237,-38.46746 z"
         id="path4211"
         inkscape:connector-curvature="0"
         sodipodi:nodetypes="ccccc" />
      <path
         style="fill:#339900;fill-opacity:1;stroke:#000000;stroke-width:8.73909473;stroke-linecap:round;stroke-linejoin:round;stroke-miterlimit:4;stroke-opacity:1"
         d="m 415.23969,467.72071 38.08873,25.27934 -25.27934,38.08873 z"
         id="path4213"
         inkscape:connector-curvature="0"
         sodipodi:nodetypes="cccc" />
    </g>
    <path
       inkscape:transform-center-x="-13.745542"
       inkscape:transform-center-y="2.1206605"
       transform="matrix(0.35353519,-0.22893912,0.22850965,0.35345833,218.54589,775.22036)"
       d="m -120.71428,44.198685 c 12.56063,0 40.95963,105.506635 47.239948,116.384465 6.280317,10.87783 83.4522393,88.2254 77.1719213,99.10323 -6.280318,10.87783 -111.8512393,-17.28123 -124.4118793,-17.28123 -12.56063,0 -118.13156,28.15905 -124.41188,17.28123 -6.28031,-10.87783 70.89161,-88.2254 77.17193,-99.10323 6.28032,-10.87783 34.67932,-116.384466 47.23996,-116.384465 z"
       inkscape:randomized="0"
       inkscape:rounded="0.1"
       inkscape:flatsided="false"
       sodipodi:arg2="-0.52359875"
       sodipodi:arg1="-1.5707963"
       sodipodi:r2="54.548"
       sodipodi:r1="143.65846"
       sodipodi:cy="187.85715"
       sodipodi:cx="-120.71429"
       sodipodi:sides="3"
       id="path3039"
       style="fill:#6699cc;fill-opacity:1;stroke:#000000;stroke-width:7.12521172;stroke-linejoin:round;stroke-miterlimit:4;stroke-opacity:1;stroke-dasharray:none;stroke-dashoffset:0"
       sodipodi:type="star" />
    <text
       transform="matrix(0.99058505,-0.12913501,0.1288591,0.99270605,0,0)"
       sodipodi:linespacing="125%"
       id="text3815"
       y="890.64374"
       x="-68.438911"
       style="font-size:27.04134941px;font-style:normal;font-variant:normal;font-weight:normal;font-stretch:normal;line-height:125%;letter-spacing:0px;word-spacing:0px;fill:#eeeeee;fill-opacity:1;stroke:none;font-family:Droid Sans Mono;-inkscape-font-specification:Droid Sans Mono"
       xml:space="preserve"><tspan
         y="890.64374"
         x="-68.438911"
         id="tspan3817"
         sodipodi:role="line">Thing</tspan></text>
    <text
       xml:space="preserve"
       style="font-size:27.04134941px;font-style:normal;font-variant:normal;font-weight:normal;font-stretch:normal;line-height:125%;letter-spacing:0px;word-spacing:0px;fill:#eeeeee;fill-opacity:1;stroke:none;font-family:Droid Sans Mono;-inkscape-font-specification:Droid Sans Mono"
       x="84.96006"
       y="897.64685"
       id="text3041"
       sodipodi:linespacing="125%"
       transform="matrix(0.99058505,-0.12913501,0.1288591,0.99270605,0,0)"><tspan
         sodipodi:role="line"
         id="tspan3043"
         x="84.96006"
         y="897.64685">Thing</tspan></text>
    <path
       inkscape:transform-center-x="-0.83400156"
       inkscape:transform-center-y="-19.935493"
       transform="matrix(0.28013504,0.48599107,0.48520811,-0.28058708,415.74001,810.66644)"
       d="m -120.71428,44.198685 c 12.44521,0 53.242514,98.548385 59.46512,109.326255 6.222606,10.77787 71.1693558,95.38357 64.9467493,106.16144 -6.2226065,10.77787 -111.9666693,-3.16482 -124.4118793,-3.16482 -12.44521,0 -118.18927,13.94269 -124.41188,3.16482 -6.2226,-10.77788 58.72415,-95.38357 64.94676,-106.16144 6.2226,-10.77787 47.01991,-109.326256 59.46513,-109.326255 z"
       inkscape:randomized="0"
       inkscape:rounded="0.1"
       inkscape:flatsided="false"
       sodipodi:arg2="-0.52359875"
       sodipodi:arg1="-1.5707963"
       sodipodi:r2="68.664413"
       sodipodi:r1="143.65846"
       sodipodi:cy="187.85715"
       sodipodi:cx="-120.71429"
       sodipodi:sides="3"
       id="path3049"
       style="fill:#6699cc;fill-opacity:1;stroke:#000000;stroke-width:5.35024548;stroke-linejoin:round;stroke-miterlimit:4;stroke-opacity:1;stroke-dasharray:none;stroke-dashoffset:0"
       sodipodi:type="star" />
    <path
       sodipodi:type="star"
       style="fill:#6699cc;fill-opacity:1;stroke:#000000;stroke-width:7.33681202;stroke-linejoin:round;stroke-miterlimit:4;stroke-opacity:1;stroke-dasharray:none;stroke-dashoffset:0"
       id="path3059"
       sodipodi:sides="3"
       sodipodi:cx="-120.71429"
       sodipodi:cy="187.85715"
       sodipodi:r1="143.65846"
       sodipodi:r2="68.664413"
       sodipodi:arg1="-1.5707963"
       sodipodi:arg2="-0.52359875"
       inkscape:flatsided="false"
       inkscape:rounded="0.1"
       inkscape:randomized="0"
       d="m -120.71428,44.198685 c 12.44521,0 53.242514,98.548385 59.46512,109.326255 6.222606,10.77787 71.1693558,95.38357 64.9467493,106.16144 -6.2226065,10.77787 -111.9666693,-3.16482 -124.4118793,-3.16482 -12.44521,0 -118.18927,13.94269 -124.41188,3.16482 -6.2226,-10.77788 58.72415,-95.38357 64.94676,-106.16144 6.2226,-10.77787 47.01991,-109.326256 59.46513,-109.326255 z"
       transform="matrix(0.20439125,0.35421427,0.35401602,-0.20450571,369.59268,889.16129)"
       inkscape:transform-center-y="-14.529973"
       inkscape:transform-center-x="-0.60850222" />
    <path
       inkscape:transform-center-x="-0.60850222"
       inkscape:transform-center-y="-14.529973"
       transform="matrix(0.20439125,0.35421427,0.35401602,-0.20450571,491.02125,889.16129)"
       d="m -120.71428,44.198685 c 12.44521,0 53.242514,98.548385 59.46512,109.326255 6.222606,10.77787 71.1693558,95.38357 64.9467493,106.16144 -6.2226065,10.77787 -111.9666693,-3.16482 -124.4118793,-3.16482 -12.44521,0 -118.18927,13.94269 -124.41188,3.16482 -6.2226,-10.77788 58.72415,-95.38357 64.94676,-106.16144 6.2226,-10.77787 47.01991,-109.326256 59.46513,-109.326255 z"
       inkscape:randomized="0"
       inkscape:rounded="0.1"
       inkscape:flatsided="false"
       sodipodi:arg2="-0.52359875"
       sodipodi:arg1="-1.5707963"
       sodipodi:r2="68.664413"
       sodipodi:r1="143.65846"
       sodipodi:cy="187.85715"
       sodipodi:cx="-120.71429"
       sodipodi:sides="3"
       id="path3061"
       style="fill:#66cc8c;fill-opacity:1;stroke:#000000;stroke-width:7.33681202;stroke-linejoin:round;stroke-miterlimit:4;stroke-opacity:1;stroke-dasharray:none;stroke-dashoffset:0"
       sodipodi:type="star" />
    <path
       sodipodi:type="star"
       style="fill:#b8cc66;fill-opacity:1;stroke:#000000;stroke-width:14.25391483;stroke-linejoin:round;stroke-miterlimit:4;stroke-opacity:1;stroke-dasharray:none;stroke-dashoffset:0"
       id="path3063"
       sodipodi:sides="3"
       sodipodi:cx="-120.71429"
       sodipodi:cy="187.85715"
       sodipodi:r1="143.65846"
       sodipodi:r2="68.664413"
       sodipodi:arg1="-1.5707963"
       sodipodi:arg2="-0.52359875"
       inkscape:flatsided="false"
       inkscape:rounded="0.1"
       inkscape:randomized="0"
       d="m -120.71428,44.198685 c 12.44521,0 53.242514,98.548385 59.46512,109.326255 6.222606,10.77787 71.1693558,95.38357 64.9467493,106.16144 -6.2226065,10.77787 -111.9666693,-3.16482 -124.4118793,-3.16482 -12.44521,0 -118.18927,13.94269 -124.41188,3.16482 -6.2226,-10.77788 58.72415,-95.38357 64.94676,-106.16144 6.2226,-10.77787 47.01991,-109.326256 59.46513,-109.326255 z"
       transform="matrix(0.10539775,0.18198833,0.18255425,-0.10507101,475.99665,916.89944)"
       inkscape:transform-center-y="-7.4652126"
       inkscape:transform-center-x="-0.31378401" />
    <path
       inkscape:transform-center-x="-0.31378401"
       inkscape:transform-center-y="-7.4652126"
       transform="matrix(0.10539775,0.18198833,0.18255425,-0.10507101,513.13951,917.61373)"
       d="m -120.71428,44.198685 c 12.44521,0 53.242514,98.548385 59.46512,109.326255 6.222606,10.77787 71.1693558,95.38357 64.9467493,106.16144 -6.2226065,10.77787 -111.9666693,-3.16482 -124.4118793,-3.16482 -12.44521,0 -118.18927,13.94269 -124.41188,3.16482 -6.2226,-10.77788 58.72415,-95.38357 64.94676,-106.16144 6.2226,-10.77787 47.01991,-109.326256 59.46513,-109.326255 z"
       inkscape:randomized="0"
       inkscape:rounded="0.1"
       inkscape:flatsided="false"
       sodipodi:arg2="-0.52359875"
       sodipodi:arg1="-1.5707963"
       sodipodi:r2="68.664413"
       sodipodi:r1="143.65846"
       sodipodi:cy="187.85715"
       sodipodi:cx="-120.71429"
       sodipodi:sides="3"
       id="path3065"
       style="fill:#339900;fill-opacity:1;stroke:#000000;stroke-width:14.25391483;stroke-linejoin:round;stroke-miterlimit:4;stroke-opacity:1;stroke-dasharray:none;stroke-dashoffset:0"
       sodipodi:type="star" />
    <path
       sodipodi:type="star"
       style="fill:#339900;fill-opacity:1;stroke:#000000;stroke-width:14.25391483;stroke-linejoin:round;stroke-miterlimit:4;stroke-opacity:1;stroke-dasharray:none;stroke-dashoffset:0"
       id="path3067"
       sodipodi:sides="3"
       sodipodi:cx="-120.71429"
       sodipodi:cy="187.85715"
       sodipodi:r1="143.65846"
       sodipodi:r2="68.664413"
       sodipodi:arg1="-1.5707963"
       sodipodi:arg2="-0.52359875"
       inkscape:flatsided="false"
       inkscape:rounded="0.1"
       inkscape:randomized="0"
       d="m -120.71428,44.198685 c 12.44521,0 53.242514,98.548385 59.46512,109.326255 6.222606,10.77787 71.1693558,95.38357 64.9467493,106.16144 -6.2226065,10.77787 -111.9666693,-3.16482 -124.4118793,-3.16482 -12.44521,0 -118.18927,13.94269 -124.41188,3.16482 -6.2226,-10.77788 58.72415,-95.38357 64.94676,-106.16144 6.2226,-10.77787 47.01991,-109.326256 59.46513,-109.326255 z"
       transform="matrix(0.10539775,0.18198833,0.18255425,-0.10507101,552.42522,916.89944)"
       inkscape:transform-center-y="-7.4652126"
       inkscape:transform-center-x="-0.31378401" />
    <path
       inkscape:transform-center-x="-0.31378401"
       inkscape:transform-center-y="-7.4652126"
       transform="matrix(0.10539775,0.18198833,0.18255425,-0.10507101,348.13951,916.89944)"
       d="m -120.71428,44.198685 c 12.44521,0 53.242514,98.548385 59.46512,109.326255 6.222606,10.77787 71.1693558,95.38357 64.9467493,106.16144 -6.2226065,10.77787 -111.9666693,-3.16482 -124.4118793,-3.16482 -12.44521,0 -118.18927,13.94269 -124.41188,3.16482 -6.2226,-10.77788 58.72415,-95.38357 64.94676,-106.16144 6.2226,-10.77787 47.01991,-109.326256 59.46513,-109.326255 z"
       inkscape:randomized="0"
       inkscape:rounded="0.1"
       inkscape:flatsided="false"
       sodipodi:arg2="-0.52359875"
       sodipodi:arg1="-1.5707963"
       sodipodi:r2="68.664413"
       sodipodi:r1="143.65846"
       sodipodi:cy="187.85715"
       sodipodi:cx="-120.71429"
       sodipodi:sides="3"
       id="path3075"
       style="fill:#66cc8c;fill-opacity:1;stroke:#000000;stroke-width:14.25391483;stroke-linejoin:round;stroke-miterlimit:4;stroke-opacity:1;stroke-dasharray:none;stroke-dashoffset:0"
       sodipodi:type="star" />
    <path
       sodipodi:type="star"
       style="fill:#cc666e;fill-opacity:1;stroke:#000000;stroke-width:14.25391483;stroke-linejoin:round;stroke-miterlimit:4;stroke-opacity:1;stroke-dasharray:none;stroke-dashoffset:0"
       id="path3077"
       sodipodi:sides="3"
       sodipodi:cx="-120.71429"
       sodipodi:cy="187.85715"
       sodipodi:r1="143.65846"
       sodipodi:r2="68.664413"
       sodipodi:arg1="-1.5707963"
       sodipodi:arg2="-0.52359875"
       inkscape:flatsided="false"
       inkscape:rounded="0.1"
       inkscape:randomized="0"
       d="m -120.71428,44.198685 c 12.44521,0 53.242514,98.548385 59.46512,109.326255 6.222606,10.77787 71.1693558,95.38357 64.9467493,106.16144 -6.2226065,10.77787 -111.9666693,-3.16482 -124.4118793,-3.16482 -12.44521,0 -118.18927,13.94269 -124.41188,3.16482 -6.2226,-10.77788 58.72415,-95.38357 64.94676,-106.16144 6.2226,-10.77787 47.01991,-109.326256 59.46513,-109.326255 z"
       transform="matrix(0.10539775,0.18198833,0.18255425,-0.10507101,328.8538,970.47087)"
       inkscape:transform-center-y="-7.4652126"
       inkscape:transform-center-x="-0.31378401" />
    <path
       inkscape:transform-center-x="-0.31378401"
       inkscape:transform-center-y="-7.4652126"
       transform="matrix(0.10539775,0.18198833,0.18255425,-0.10507101,373.13951,970.47087)"
       d="m -120.71428,44.198685 c 12.44521,0 53.242514,98.548385 59.46512,109.326255 6.222606,10.77787 71.1693558,95.38357 64.9467493,106.16144 -6.2226065,10.77787 -111.9666693,-3.16482 -124.4118793,-3.16482 -12.44521,0 -118.18927,13.94269 -124.41188,3.16482 -6.2226,-10.77788 58.72415,-95.38357 64.94676,-106.16144 6.2226,-10.77787 47.01991,-109.326256 59.46513,-109.326255 z"
       inkscape:randomized="0"
       inkscape:rounded="0.1"
       inkscape:flatsided="false"
       sodipodi:arg2="-0.52359875"
       sodipodi:arg1="-1.5707963"
       sodipodi:r2="68.664413"
       sodipodi:r1="143.65846"
       sodipodi:cy="187.85715"
       sodipodi:cx="-120.71429"
       sodipodi:sides="3"
       id="path3079"
       style="fill:#339900;fill-opacity:1;stroke:#000000;stroke-width:14.25391483;stroke-linejoin:round;stroke-miterlimit:4;stroke-opacity:1;stroke-dasharray:none;stroke-dashoffset:0"
       sodipodi:type="star" />
  </g>
</svg>
