<?xml version="1.0" encoding="UTF-8" standalone="no"?>
<!-- Created with Inkscape (http://www.inkscape.org/) -->

<svg
   xmlns:dc="http://purl.org/dc/elements/1.1/"
   xmlns:cc="http://creativecommons.org/ns#"
   xmlns:rdf="http://www.w3.org/1999/02/22-rdf-syntax-ns#"
   xmlns:svg="http://www.w3.org/2000/svg"
   xmlns="http://www.w3.org/2000/svg"
   xmlns:sodipodi="http://sodipodi.sourceforge.net/DTD/sodipodi-0.dtd"
   xmlns:inkscape="http://www.inkscape.org/namespaces/inkscape"
   width="640"
   height="480"
   id="svg2"
   version="1.1"
   inkscape:version="0.48.2 r9819"
   sodipodi:docname="Decorator.svg"
   inkscape:export-filename="/home/egon/Documents/patterns-irl/Design Patterns/Creational/images/FactoryMethod.png"
   inkscape:export-xdpi="90"
   inkscape:export-ydpi="90">
  <defs
     id="defs4">
    <marker
       inkscape:stockid="Arrow1Mend"
       orient="auto"
       refY="0.0"
       refX="0.0"
       id="Arrow1Mend"
       style="overflow:visible;">
      <path
         id="path3828"
         d="M 0.0,0.0 L 5.0,-5.0 L -12.5,0.0 L 5.0,5.0 L 0.0,0.0 z "
         style="fill-rule:evenodd;stroke:#000000;stroke-width:1.0pt;marker-start:none;"
         transform="scale(0.4) rotate(180) translate(10,0)" />
    </marker>
  </defs>
  <sodipodi:namedview
     id="base"
     pagecolor="#ffff99"
     bordercolor="#666666"
     borderopacity="1.0"
     inkscape:pageopacity="1"
     inkscape:pageshadow="2"
     inkscape:zoom="1.979899"
     inkscape:cx="353.40207"
     inkscape:cy="244.53358"
     inkscape:document-units="px"
     inkscape:current-layer="layer1"
     showgrid="false"
     showguides="true"
     inkscape:guide-bbox="true"
     inkscape:window-width="1920"
     inkscape:window-height="1028"
     inkscape:window-x="-8"
     inkscape:window-y="-8"
     inkscape:window-maximized="1" />
  <metadata
     id="metadata7">
    <rdf:RDF>
      <cc:Work
         rdf:about="">
        <dc:format>image/svg+xml</dc:format>
        <dc:type
           rdf:resource="http://purl.org/dc/dcmitype/StillImage" />
        <dc:title />
      </cc:Work>
    </rdf:RDF>
  </metadata>
  <g
     inkscape:label="Layer 1"
     inkscape:groupmode="layer"
     id="layer1"
     transform="translate(0,-572.36218)">
    <g
       id="g3016"
       transform="matrix(0.84969422,0,0,0.85005329,45.8557,149.87157)">
      <path
         inkscape:transform-center-x="-0.83400156"
         inkscape:transform-center-y="-19.935493"
         transform="matrix(0.28013504,0.48599107,0.48520811,-0.28058708,38.597146,785.68747)"
         d="m -120.71428,44.198685 c 12.44521,0 53.242514,98.548385 59.46512,109.326255 6.222606,10.77787 71.1693558,95.38357 64.9467493,106.16144 -6.2226065,10.77787 -111.9666693,-3.16482 -124.4118793,-3.16482 -12.44521,0 -118.18927,13.94269 -124.41188,3.16482 -6.2226,-10.77788 58.72415,-95.38357 64.94676,-106.16144 6.2226,-10.77787 47.01991,-109.326256 59.46513,-109.326255 z"
         inkscape:randomized="0"
         inkscape:rounded="0.1"
         inkscape:flatsided="false"
         sodipodi:arg2="-0.52359875"
         sodipodi:arg1="-1.5707963"
         sodipodi:r2="68.664413"
         sodipodi:r1="143.65846"
         sodipodi:cy="187.85715"
         sodipodi:cx="-120.71429"
         sodipodi:sides="3"
         id="path3012"
         style="fill:#eeeeee;fill-opacity:1;stroke:#000000;stroke-width:6.29534149;stroke-linejoin:round;stroke-miterlimit:4;stroke-opacity:1;stroke-dasharray:none;stroke-dashoffset:0"
         sodipodi:type="star" />
      <text
         xml:space="preserve"
         style="font-size:17.83612442px;font-style:normal;font-variant:normal;font-weight:normal;font-stretch:normal;line-height:125%;letter-spacing:0px;word-spacing:0px;fill:#333333;fill-opacity:1;stroke:none;font-family:Droid Sans Mono;-inkscape-font-specification:Droid Sans Mono"
         x="-26.252268"
         y="680.73358"
         id="text4127"
         sodipodi:linespacing="125%"
         transform="matrix(0.99046907,-0.12915013,0.12884401,0.9928223,0,0)"><tspan
           sodipodi:role="line"
           id="tspan4129"
           x="-26.252268"
           y="680.73358">Abstract</tspan><tspan
           id="tspan4365"
           sodipodi:role="line"
           x="-26.252268"
           y="703.02875"> Thing</tspan></text>
    </g>
    <g
       style="fill:#6699cc"
       id="g4203"
       transform="matrix(-0.06198751,0.26735204,0.30580712,0.05419261,68.448573,675.4027)">
      <path
         sodipodi:nodetypes="ccccc"
         inkscape:connector-curvature="0"
         id="path4205"
         d="m 255.77979,-128.86922 c 14.97144,31.92207 130.14125,58.883786 175.76898,45.44226 l -5.12019,16.99839 c -56.61443,13.95512 -165.26496,1.295522 -195.24237,-38.46746 z"
         style="fill:#6699cc;fill-opacity:1;stroke:#000000;stroke-width:10.28281498;stroke-linecap:round;stroke-linejoin:round;stroke-miterlimit:4;stroke-opacity:1"
         transform="translate(0,572.36218)" />
      <path
         sodipodi:nodetypes="cccc"
         inkscape:connector-curvature="0"
         id="path4207"
         d="m 415.23969,467.72071 38.08873,25.27934 -25.27934,38.08873 z"
         style="fill:#6699cc;fill-opacity:1;stroke:#000000;stroke-width:10.28281498;stroke-linecap:round;stroke-linejoin:round;stroke-miterlimit:4;stroke-opacity:1" />
    </g>
    <g
       style="fill:#cb466a;fill-opacity:1"
       transform="matrix(1.0086504,0.06248836,0.20445477,-0.30827799,-182.07357,783.01143)"
       id="g4209">
      <path
         transform="translate(0,572.36218)"
         style="fill:#cb466a;fill-opacity:1;stroke:#000000;stroke-width:5.27273512000000010;stroke-linecap:round;stroke-linejoin:round;stroke-miterlimit:4;stroke-opacity:1"
         d="m 255.77979,-128.86922 c 14.97144,31.92207 130.14125,58.883786 175.76898,45.44226 l -5.12019,16.99839 c -56.61443,13.95512 -165.26496,1.295522 -195.24237,-38.46746 z"
         id="path4211"
         inkscape:connector-curvature="0"
         sodipodi:nodetypes="ccccc" />
      <path
         style="fill:#cb466a;fill-opacity:1;stroke:#000000;stroke-width:5.27273512000000010;stroke-linecap:round;stroke-linejoin:round;stroke-miterlimit:4;stroke-opacity:1"
         d="m 428.16371,470.34043 12.2407,20.03991 -14.77651,40.21766 z"
         id="path4213"
         inkscape:connector-curvature="0"
         sodipodi:nodetypes="cccc" />
    </g>
    <path
       inkscape:transform-center-x="-11.679511"
       inkscape:transform-center-y="1.8026759"
       transform="matrix(0.30039681,-0.19461045,0.19416333,0.30045842,193.31664,778.49115)"
       d="m -120.71428,44.198685 c 12.56063,0 40.95963,105.506635 47.239948,116.384465 6.280317,10.87783 83.4522393,88.2254 77.1719213,99.10323 -6.280318,10.87783 -111.8512393,-17.28123 -124.4118793,-17.28123 -12.56063,0 -118.13156,28.15905 -124.41188,17.28123 -6.28031,-10.87783 70.89161,-88.2254 77.17193,-99.10323 6.28032,-10.87783 34.67932,-116.384466 47.23996,-116.384465 z"
       inkscape:randomized="0"
       inkscape:rounded="0.1"
       inkscape:flatsided="false"
       sodipodi:arg2="-0.52359875"
       sodipodi:arg1="-1.5707963"
       sodipodi:r2="54.548"
       sodipodi:r1="143.65846"
       sodipodi:cy="187.85715"
       sodipodi:cx="-120.71429"
       sodipodi:sides="3"
       id="path3039"
       style="fill:#6699cc;fill-opacity:1;stroke:#000000;stroke-width:8.38384724;stroke-linejoin:round;stroke-miterlimit:4;stroke-opacity:1;stroke-dasharray:none;stroke-dashoffset:0"
       sodipodi:type="star" />
    <text
       xml:space="preserve"
       style="font-size:22.98173332px;font-style:normal;font-variant:normal;font-weight:normal;font-stretch:normal;line-height:125%;letter-spacing:0px;word-spacing:0px;fill:#eeeeee;fill-opacity:1;stroke:none;font-family:Droid Sans Mono;-inkscape-font-specification:Droid Sans Mono"
       x="64.373779"
       y="882.23297"
       id="text3041"
       sodipodi:linespacing="125%"
       transform="matrix(0.99037581,-0.12916229,0.12883188,0.99291578,0,0)"><tspan
         sodipodi:role="line"
         id="tspan3043"
         x="64.373779"
         y="882.23297">Thing</tspan></text>
    <path
       inkscape:transform-center-x="-0.83400156"
       inkscape:transform-center-y="-19.935493"
       transform="matrix(0.23802912,0.41311831,0.41227853,-0.23851397,340.38251,820.27318)"
       d="m -120.71428,44.198685 c 12.44521,0 53.242514,98.548385 59.46512,109.326255 6.222606,10.77787 71.1693558,95.38357 64.9467493,106.16144 -6.2226065,10.77787 -111.9666693,-3.16482 -124.4118793,-3.16482 -12.44521,0 -118.18927,13.94269 -124.41188,3.16482 -6.2226,-10.77788 58.72415,-95.38357 64.94676,-106.16144 6.2226,-10.77787 47.01991,-109.326256 59.46513,-109.326255 z"
       inkscape:randomized="0"
       inkscape:rounded="0.1"
       inkscape:flatsided="false"
       sodipodi:arg2="-0.52359875"
       sodipodi:arg1="-1.5707963"
       sodipodi:r2="68.664413"
       sodipodi:r1="143.65846"
       sodipodi:cy="187.85715"
       sodipodi:cx="-120.71429"
       sodipodi:sides="3"
       id="path3010"
       style="fill:none;stroke:#cb466a;stroke-width:12.5906833;stroke-linejoin:round;stroke-miterlimit:4;stroke-opacity:1;stroke-dasharray:none;stroke-dashoffset:0"
       sodipodi:type="star" />
    <text
       xml:space="preserve"
       style="font-size:15.15845394px;font-style:normal;font-variant:normal;font-weight:normal;font-stretch:normal;line-height:125%;letter-spacing:0px;word-spacing:0px;fill:#333333;fill-opacity:1;stroke:none;font-family:Droid Sans Mono;-inkscape-font-specification:Droid Sans Mono"
       x="254.65977"
       y="781.70001"
       id="text3012"
       sodipodi:linespacing="125%"
       transform="matrix(0.99025986,-0.12917741,0.12881679,0.99303206,0,0)"><tspan
         id="tspan3016"
         sodipodi:role="line"
         x="254.65977"
         y="781.70001">Decorator</tspan></text>
    <path
       sodipodi:type="star"
       style="fill:none;stroke:#46cb64;stroke-width:12.5906833;stroke-linejoin:round;stroke-miterlimit:4;stroke-opacity:1;stroke-dasharray:6.29534165,6.29534165;stroke-dashoffset:0"
       id="path3792"
       sodipodi:sides="3"
       sodipodi:cx="-120.71429"
       sodipodi:cy="187.85715"
       sodipodi:r1="143.65846"
       sodipodi:r2="68.664413"
       sodipodi:arg1="-1.5707963"
       sodipodi:arg2="-0.52359875"
       inkscape:flatsided="false"
       inkscape:rounded="0.1"
       inkscape:randomized="0"
       d="m -120.71428,44.198685 c 12.44521,0 53.242514,98.548385 59.46512,109.326255 6.222606,10.77787 71.1693558,95.38357 64.9467493,106.16144 -6.2226065,10.77787 -111.9666693,-3.16482 -124.4118793,-3.16482 -12.44521,0 -118.18927,13.94269 -124.41188,3.16482 -6.2226,-10.77788 58.72415,-95.38357 64.94676,-106.16144 6.2226,-10.77787 47.01991,-109.326256 59.46513,-109.326255 z"
       transform="matrix(0.23802912,0.41311831,0.41227853,-0.23851397,499.66822,820.27318)"
       inkscape:transform-center-y="-19.935493"
       inkscape:transform-center-x="-0.83400156" />
    <text
       transform="matrix(0.99025986,-0.12917741,0.12881679,0.99303206,0,0)"
       sodipodi:linespacing="125%"
       id="text3794"
       y="802.27612"
       x="412.8356"
       style="font-size:15.15845394px;font-style:normal;font-variant:normal;font-weight:normal;font-stretch:normal;line-height:125%;letter-spacing:0px;word-spacing:0px;fill:#333333;fill-opacity:1;stroke:none;font-family:Droid Sans Mono;-inkscape-font-specification:Droid Sans Mono"
       xml:space="preserve"><tspan
         y="802.27612"
         x="412.8356"
         sodipodi:role="line"
         id="tspan3796">Decorator</tspan></text>
    <path
       style="fill:none;stroke:#000000;stroke-width:4;stroke-linecap:butt;stroke-linejoin:miter;stroke-miterlimit:4;stroke-opacity:1;stroke-dasharray:none;marker-end:url(#Arrow1Mend)"
       d="m 207.14286,883.79076 c 13.84491,47.04736 70.66216,34.4682 91.37645,30.89677"
       id="path3812"
       inkscape:connector-curvature="0"
       sodipodi:nodetypes="cc" />
    <path
       style="fill:none;stroke:#000000;stroke-width:4;stroke-linecap:butt;stroke-linejoin:miter;stroke-miterlimit:4;stroke-opacity:1;stroke-dasharray:none;marker-end:url(#Arrow1Mend)"
       d="m 385.00001,770.21932 c -40.71429,39.28572 -42.85715,69.28572 -47.14286,102.14286"
       id="path3814"
       inkscape:connector-curvature="0"
       sodipodi:nodetypes="cc" />
    <path
       sodipodi:type="star"
       style="fill:#6699cc;fill-opacity:1;stroke:#000000;stroke-width:8.38384724;stroke-linejoin:round;stroke-miterlimit:4;stroke-opacity:1;stroke-dasharray:none;stroke-dashoffset:0"
       id="path4260"
       sodipodi:sides="3"
       sodipodi:cx="-120.71429"
       sodipodi:cy="187.85715"
       sodipodi:r1="143.65846"
       sodipodi:r2="54.548"
       sodipodi:arg1="-1.5707963"
       sodipodi:arg2="-0.52359875"
       inkscape:flatsided="false"
       inkscape:rounded="0.1"
       inkscape:randomized="0"
       d="m -120.71428,44.198685 c 12.56063,0 40.95963,105.506635 47.239948,116.384465 6.280317,10.87783 83.4522393,88.2254 77.1719213,99.10323 -6.280318,10.87783 -111.8512393,-17.28123 -124.4118793,-17.28123 -12.56063,0 -118.13156,28.15905 -124.41188,17.28123 -6.28031,-10.87783 70.89161,-88.2254 77.17193,-99.10323 6.28032,-10.87783 34.67932,-116.384466 47.23996,-116.384465 z"
       transform="matrix(0.30039681,-0.19461045,0.19416333,0.30045842,344.03093,851.34829)"
       inkscape:transform-center-y="1.8026759"
       inkscape:transform-center-x="-11.679511" />
    <path
       inkscape:transform-center-x="-14.154989"
       inkscape:transform-center-y="2.1826416"
       transform="matrix(0.36406643,-0.23563007,0.23531658,0.36378848,343.92903,834.59085)"
       d="m -120.71428,44.198685 c 12.56063,0 40.95963,105.506635 47.239948,116.384465 6.280317,10.87783 83.4522393,88.2254 77.1719213,99.10323 -6.280318,10.87783 -111.8512393,-17.28123 -124.4118793,-17.28123 -12.56063,0 -118.13156,28.15905 -124.41188,17.28123 -6.28031,-10.87783 70.89161,-88.2254 77.17193,-99.10323 6.28032,-10.87783 34.67932,-116.384466 47.23996,-116.384465 z"
       inkscape:randomized="0"
       inkscape:rounded="0.1"
       inkscape:flatsided="false"
       sodipodi:arg2="-0.52359875"
       sodipodi:arg1="-1.5707963"
       sodipodi:r2="54.548"
       sodipodi:r1="143.65846"
       sodipodi:cy="187.85715"
       sodipodi:cx="-120.71429"
       sodipodi:sides="3"
       id="path4264"
       style="fill:none;stroke:#cb466a;stroke-width:13.84198761;stroke-linejoin:round;stroke-miterlimit:4;stroke-opacity:1;stroke-dasharray:none;stroke-dashoffset:0"
       sodipodi:type="star" />
    <g
       id="g4266"
       transform="matrix(1.9042552,0.09739994,0.38599504,-0.48050963,-515.4407,832.51874)"
       style="fill:#46cb64;fill-opacity:1">
      <path
         sodipodi:nodetypes="ccccc"
         inkscape:connector-curvature="0"
         id="path4268"
         d="m 255.77979,-128.86922 c -1.78745,86.992264 113.95111,112.085064 175.76898,45.44226 l -5.12019,16.99839 c -65.62573,58.411174 -170.72845,28.248905 -195.24237,-38.46746 z"
         style="fill:#46cb64;fill-opacity:1;stroke:#000000;stroke-width:3.07371736;stroke-linecap:round;stroke-linejoin:round;stroke-miterlimit:4;stroke-opacity:1"
         transform="translate(0,572.36218)" />
      <path
         sodipodi:nodetypes="cccc"
         inkscape:connector-curvature="0"
         id="path4270"
         d="m 428.16371,470.34043 12.2407,20.03991 -14.77651,40.21766 z"
         style="fill:#46cb64;fill-opacity:1;stroke:#000000;stroke-width:3.07371736;stroke-linecap:round;stroke-linejoin:round;stroke-miterlimit:4;stroke-opacity:1" />
    </g>
    <path
       sodipodi:nodetypes="cc"
       inkscape:connector-curvature="0"
       id="path4272"
       d="m 547.12949,770.21932 c -40.71429,39.28572 -42.85715,69.28572 -47.14286,102.14286"
       style="fill:none;stroke:#000000;stroke-width:4;stroke-linecap:butt;stroke-linejoin:miter;stroke-miterlimit:4;stroke-opacity:1;stroke-dasharray:none;marker-end:url(#Arrow1Mend)" />
    <path
       inkscape:connector-curvature="0"
       id="path4274"
       d="m 376.34341,953.49129 c 13.84491,47.04731 52.09074,40.18248 91.37645,30.89677"
       style="fill:none;stroke:#000000;stroke-width:4;stroke-linecap:butt;stroke-linejoin:miter;stroke-miterlimit:4;stroke-opacity:1;stroke-dasharray:none;marker-end:url(#Arrow1Mend)"
       sodipodi:nodetypes="cc" />
    <path
       inkscape:transform-center-x="-11.679511"
       inkscape:transform-center-y="1.8026759"
       transform="matrix(0.30039681,-0.19461045,0.19416333,0.30045842,510.7061,851.34829)"
       d="m -120.71428,44.198685 c 12.56063,0 40.95963,105.506635 47.239948,116.384465 6.280317,10.87783 83.4522393,88.2254 77.1719213,99.10323 -6.280318,10.87783 -111.8512393,-17.28123 -124.4118793,-17.28123 -12.56063,0 -118.13156,28.15905 -124.41188,17.28123 -6.28031,-10.87783 70.89161,-88.2254 77.17193,-99.10323 6.28032,-10.87783 34.67932,-116.384466 47.23996,-116.384465 z"
       inkscape:randomized="0"
       inkscape:rounded="0.1"
       inkscape:flatsided="false"
       sodipodi:arg2="-0.52359875"
       sodipodi:arg1="-1.5707963"
       sodipodi:r2="54.548"
       sodipodi:r1="143.65846"
       sodipodi:cy="187.85715"
       sodipodi:cx="-120.71429"
       sodipodi:sides="3"
       id="path4276"
       style="fill:#6699cc;fill-opacity:1;stroke:#000000;stroke-width:8.38384724;stroke-linejoin:round;stroke-miterlimit:4;stroke-opacity:1;stroke-dasharray:none;stroke-dashoffset:0"
       sodipodi:type="star" />
    <path
       sodipodi:type="star"
       style="fill:none;stroke:#cb466a;stroke-width:14.4393034;stroke-linejoin:round;stroke-miterlimit:4;stroke-opacity:1;stroke-dasharray:none;stroke-dashoffset:0"
       id="path4278"
       sodipodi:sides="3"
       sodipodi:cx="-120.71429"
       sodipodi:cy="187.85715"
       sodipodi:r1="143.65846"
       sodipodi:r2="54.548"
       sodipodi:arg1="-1.5707963"
       sodipodi:arg2="-0.52359875"
       inkscape:flatsided="false"
       inkscape:rounded="0.1"
       inkscape:randomized="0"
       d="m -120.71428,44.198685 c 12.56063,0 40.95963,105.506635 47.239948,116.384465 6.280317,10.87783 83.4522393,88.2254 77.1719213,99.10323 -6.280318,10.87783 -111.8512393,-17.28123 -124.4118793,-17.28123 -12.56063,0 -118.13156,28.15905 -124.41188,17.28123 -6.28031,-10.87783 70.89161,-88.2254 77.17193,-99.10323 6.28032,-10.87783 34.67932,-116.384466 47.23996,-116.384465 z"
       transform="matrix(0.34896058,-0.22591206,0.22555282,0.34878487,510.63581,838.56191)"
       inkscape:transform-center-y="2.092623"
       inkscape:transform-center-x="-13.567679" />
    <path
       inkscape:transform-center-x="-15.441447"
       inkscape:transform-center-y="2.3807762"
       transform="matrix(0.39715397,-0.25701997,0.25670291,0.39681229,510.59831,825.85913)"
       d="m -120.71428,44.198685 c 12.56063,0 40.95963,105.506635 47.239948,116.384465 6.280317,10.87783 83.4522393,88.2254 77.1719213,99.10323 -6.280318,10.87783 -111.8512393,-17.28123 -124.4118793,-17.28123 -12.56063,0 -118.13156,28.15905 -124.41188,17.28123 -6.28031,-10.87783 70.89161,-88.2254 77.17193,-99.10323 6.28032,-10.87783 34.67932,-116.384466 47.23996,-116.384465 z"
       inkscape:randomized="0"
       inkscape:rounded="0.1"
       inkscape:flatsided="false"
       sodipodi:arg2="-0.52359875"
       sodipodi:arg1="-1.5707963"
       sodipodi:r2="54.548"
       sodipodi:r1="143.65846"
       sodipodi:cy="187.85715"
       sodipodi:cx="-120.71429"
       sodipodi:sides="3"
       id="path4280"
       style="fill:none;stroke:#46cb64;stroke-width:12.68940424;stroke-linejoin:round;stroke-miterlimit:4;stroke-opacity:1;stroke-dasharray:6.34470212,6.34470212;stroke-dashoffset:0"
       sodipodi:type="star" />
  </g>
</svg>
