<?xml version="1.0" encoding="UTF-8" standalone="no"?>
<!-- Created with Inkscape (http://www.inkscape.org/) -->

<svg
   xmlns:dc="http://purl.org/dc/elements/1.1/"
   xmlns:cc="http://creativecommons.org/ns#"
   xmlns:rdf="http://www.w3.org/1999/02/22-rdf-syntax-ns#"
   xmlns:svg="http://www.w3.org/2000/svg"
   xmlns="http://www.w3.org/2000/svg"
   xmlns:sodipodi="http://sodipodi.sourceforge.net/DTD/sodipodi-0.dtd"
   xmlns:inkscape="http://www.inkscape.org/namespaces/inkscape"
   width="640"
   height="480"
   id="svg2"
   version="1.1"
   inkscape:version="0.48.2 r9819"
   sodipodi:docname="Proxy.svg"
   inkscape:export-filename="./Proxy.png"
   inkscape:export-xdpi="90"
   inkscape:export-ydpi="90">
  <defs
     id="defs4">
    <marker
       inkscape:stockid="Arrow1Mend"
       orient="auto"
       refY="0.0"
       refX="0.0"
       id="Arrow1Mend"
       style="overflow:visible;">
      <path
         id="path4008"
         d="M 0.0,0.0 L 5.0,-5.0 L -12.5,0.0 L 5.0,5.0 L 0.0,0.0 z "
         style="fill-rule:evenodd;stroke:#000000;stroke-width:1.0pt;marker-start:none;"
         transform="scale(0.4) rotate(180) translate(10,0)" />
    </marker>
  </defs>
  <sodipodi:namedview
     id="base"
     pagecolor="#ffff99"
     bordercolor="#666666"
     borderopacity="1.0"
     inkscape:pageopacity="1"
     inkscape:pageshadow="2"
     inkscape:zoom="1.4"
     inkscape:cx="237.85927"
     inkscape:cy="215.88687"
     inkscape:document-units="px"
     inkscape:current-layer="layer1"
     showgrid="false"
     showguides="true"
     inkscape:guide-bbox="true"
     inkscape:window-width="1920"
     inkscape:window-height="1028"
     inkscape:window-x="1272"
     inkscape:window-y="-8"
     inkscape:window-maximized="1" />
  <metadata
     id="metadata7">
    <rdf:RDF>
      <cc:Work
         rdf:about="">
        <dc:format>image/svg+xml</dc:format>
        <dc:type
           rdf:resource="http://purl.org/dc/dcmitype/StillImage" />
        <dc:title></dc:title>
      </cc:Work>
    </rdf:RDF>
  </metadata>
  <g
     inkscape:label="Layer 1"
     inkscape:groupmode="layer"
     id="layer1"
     transform="translate(0,-572.36218)">
    <g
       id="g3016"
       transform="matrix(1.2821048,0,0,1.2824883,60.347089,-60.803986)">
      <path
         inkscape:transform-center-x="-0.83400156"
         inkscape:transform-center-y="-19.935493"
         transform="matrix(0.28013504,0.48599107,0.48520811,-0.28058708,38.597146,785.68747)"
         d="m -120.71428,44.198685 c 12.44521,0 53.242514,98.548385 59.46512,109.326255 6.222606,10.77787 71.1693558,95.38357 64.9467493,106.16144 -6.2226065,10.77787 -111.9666693,-3.16482 -124.4118793,-3.16482 -12.44521,0 -118.18927,13.94269 -124.41188,3.16482 -6.2226,-10.77788 58.72415,-95.38357 64.94676,-106.16144 6.2226,-10.77787 47.01991,-109.326256 59.46513,-109.326255 z"
         inkscape:randomized="0"
         inkscape:rounded="0.1"
         inkscape:flatsided="false"
         sodipodi:arg2="-0.52359875"
         sodipodi:arg1="-1.5707963"
         sodipodi:r2="68.664413"
         sodipodi:r1="143.65846"
         sodipodi:cy="187.85715"
         sodipodi:cx="-120.71429"
         sodipodi:sides="3"
         id="path3012"
         style="fill:#eeeeee;fill-opacity:1;stroke:#000000;stroke-width:4.17239332;stroke-linejoin:round;stroke-miterlimit:4;stroke-opacity:1;stroke-dasharray:none;stroke-dashoffset:0"
         sodipodi:type="star" />
      <text
         xml:space="preserve"
         style="font-size:17.83612442px;font-style:normal;font-variant:normal;font-weight:normal;font-stretch:normal;line-height:125%;letter-spacing:0px;word-spacing:0px;fill:#333333;fill-opacity:1;stroke:none;font-family:Droid Sans Mono;-inkscape-font-specification:Droid Sans Mono"
         x="-26.252268"
         y="680.73358"
         id="text4127"
         sodipodi:linespacing="125%"
         transform="matrix(0.99046907,-0.12915013,0.12884401,0.9928223,0,0)"><tspan
           sodipodi:role="line"
           id="tspan4129"
           x="-26.252268"
           y="680.73358">Abstract</tspan><tspan
           id="tspan4365"
           sodipodi:role="line"
           x="-26.252268"
           y="703.02875"> Thing</tspan></text>
    </g>
    <g
       style="fill:#339900;fill-opacity:1"
       id="g4203"
       transform="matrix(0.4137056,-0.01402374,-0.04047594,-0.46700455,143.48806,938.34788)">
      <path
         sodipodi:nodetypes="ccccc"
         inkscape:connector-curvature="0"
         id="path4205"
         d="m 255.77979,-128.86922 c 14.97144,31.92207 130.14125,58.883786 175.76898,45.44226 l -5.12019,16.99839 c -56.61443,13.95512 -165.26496,1.295522 -195.24237,-38.46746 z"
         style="fill:#339900;fill-opacity:1;stroke:#000000;stroke-width:6.81519032000000010;stroke-linecap:round;stroke-linejoin:round;stroke-miterlimit:4;stroke-opacity:1"
         transform="translate(0,572.36218)" />
      <path
         sodipodi:nodetypes="cccc"
         inkscape:connector-curvature="0"
         id="path4207"
         d="m 415.23969,467.72071 38.08873,25.27934 -25.27934,38.08873 z"
         style="fill:#339900;fill-opacity:1;stroke:#000000;stroke-width:6.81519032000000010;stroke-linecap:round;stroke-linejoin:round;stroke-miterlimit:4;stroke-opacity:1" />
    </g>
    <g
       style="fill:#f4e3d7;fill-opacity:1"
       transform="matrix(0.54834837,0.23037537,-0.41911849,0.40403973,289.16816,637.42032)"
       id="g4209">
      <path
         style="fill:#f4e3d7;fill-opacity:1;stroke:#000000;stroke-width:5.31903982;stroke-linecap:round;stroke-linejoin:round;stroke-miterlimit:4;stroke-opacity:1"
         d="m 255.77979,-128.86922 c 14.97144,31.92207 130.14125,58.883786 175.76898,45.44226 l -5.12019,16.99839 c -56.61443,13.95512 -165.26496,1.295522 -195.24237,-38.46746 z"
         id="path4211"
         inkscape:connector-curvature="0"
         sodipodi:nodetypes="ccccc"
         transform="translate(0,572.36218)" />
      <path
         style="fill:#f4e3d7;fill-opacity:1;stroke:#000000;stroke-width:5.31903982;stroke-linecap:round;stroke-linejoin:round;stroke-miterlimit:4;stroke-opacity:1"
         d="m 415.23969,467.72071 38.08873,25.27934 -25.27934,38.08873 z"
         id="path4213"
         inkscape:connector-curvature="0"
         sodipodi:nodetypes="cccc" />
    </g>
    <g
       id="g3040"
       transform="matrix(1.2821048,0,0,1.2824883,-58.268983,-242.96244)">
      <g
         id="g3008"
         transform="translate(240,264.28572)">
        <path
           inkscape:transform-center-x="-0.59589398"
           inkscape:transform-center-y="-14.227752"
           transform="matrix(0.2001565,0.34684677,0.34668121,-0.20025208,55.235568,753.48564)"
           d="m -120.71428,44.198685 c 12.44521,0 53.242514,98.548385 59.46512,109.326255 6.222606,10.77787 71.1693558,95.38357 64.9467493,106.16144 -6.2226065,10.77787 -111.9666693,-3.16482 -124.4118793,-3.16482 -12.44521,0 -118.18927,13.94269 -124.41188,3.16482 -6.2226,-10.77788 58.72415,-95.38357 64.94676,-106.16144 6.2226,-10.77787 47.01991,-109.326256 59.46513,-109.326255 z"
           inkscape:randomized="0"
           inkscape:rounded="0.1"
           inkscape:flatsided="false"
           sodipodi:arg2="-0.52359875"
           sodipodi:arg1="-1.5707963"
           sodipodi:r2="68.664413"
           sodipodi:r1="143.65846"
           sodipodi:cy="187.85715"
           sodipodi:cx="-120.71429"
           sodipodi:sides="3"
           id="path3010"
           style="fill:#f4e3d7;fill-opacity:1;stroke:#000000;stroke-width:5.84291315;stroke-linejoin:round;stroke-miterlimit:4;stroke-opacity:1;stroke-dasharray:none;stroke-dashoffset:0"
           sodipodi:type="star" />
        <text
           xml:space="preserve"
           style="font-size:17.83612442px;font-style:normal;font-variant:normal;font-weight:normal;font-stretch:normal;line-height:125%;letter-spacing:0px;word-spacing:0px;fill:#333333;fill-opacity:1;stroke:none;font-family:Droid Sans Mono;-inkscape-font-specification:Droid Sans Mono"
           x="-17.394617"
           y="691.04291"
           id="text3012"
           sodipodi:linespacing="125%"
           transform="matrix(0.99046907,-0.12915013,0.12884401,0.9928223,0,0)"><tspan
             id="tspan3016"
             sodipodi:role="line"
             x="-17.394617"
             y="691.04291">Proxy</tspan></text>
      </g>
    </g>
    <g
       id="g3035"
       transform="matrix(1.2821048,0,0,1.2824883,-109.42628,-223.5298)">
      <path
         inkscape:transform-center-x="-0.52442758"
         inkscape:transform-center-y="-12.514604"
         transform="matrix(0.17615129,0.30508323,0.30510297,-0.17613989,342.85135,781.74935)"
         d="m -120.71428,44.198685 c 12.44521,0 53.242514,98.548385 59.46512,109.326255 6.222606,10.77787 71.1693558,95.38357 64.9467493,106.16144 -6.2226065,10.77787 -111.9666693,-3.16482 -124.4118793,-3.16482 -12.44521,0 -118.18927,13.94269 -124.41188,3.16482 -6.2226,-10.77788 58.72415,-95.38357 64.94676,-106.16144 6.2226,-10.77787 47.01991,-109.326256 59.46513,-109.326255 z"
         inkscape:randomized="0"
         inkscape:rounded="0.1"
         inkscape:flatsided="false"
         sodipodi:arg2="-0.52359875"
         sodipodi:arg1="-1.5707963"
         sodipodi:r2="68.664413"
         sodipodi:r1="143.65846"
         sodipodi:cy="187.85715"
         sodipodi:cx="-120.71429"
         sodipodi:sides="3"
         id="path3020"
         style="fill:#339900;fill-opacity:1;stroke:#000000;stroke-width:6.6409626;stroke-linejoin:round;stroke-miterlimit:4;stroke-opacity:1;stroke-dasharray:none;stroke-dashoffset:0"
         sodipodi:type="star" />
      <text
         xml:space="preserve"
         style="font-size:17.83612442px;font-style:normal;font-variant:normal;font-weight:normal;font-stretch:normal;line-height:125%;letter-spacing:0px;word-spacing:0px;fill:#eeeeee;fill-opacity:1;stroke:none;font-family:Droid Sans Mono;-inkscape-font-specification:Droid Sans Mono"
         x="255.224"
         y="767.71057"
         id="text3022"
         sodipodi:linespacing="125%"
         transform="matrix(0.99046907,-0.12915013,0.12884401,0.9928223,0,0)"><tspan
           id="tspan3026"
           sodipodi:role="line"
           x="255.224"
           y="767.71057"> Thing</tspan></text>
    </g>
    <path
       style="fill:none;stroke:#000000;stroke-width:3;stroke-linecap:butt;stroke-linejoin:miter;stroke-miterlimit:4;stroke-opacity:1;stroke-dasharray:none;marker-end:url(#Arrow1Mend)"
       d="m 412.50765,923.36527 c 97.13412,-91.98113 44.6817,-133.43741 14.24634,-180.72348"
       id="path3046"
       inkscape:connector-curvature="0"
       sodipodi:nodetypes="cc" />
    <path
       style="fill:#dadada;fill-opacity:0.48148151;stroke:#4d4d4d;stroke-width:1"
       d="m 481.37174,783.45246 c -8.08506,0 -14.77318,5.20678 -15.95093,11.9885 -0.15185,-10e-4 -0.30163,-0.0264 -0.45402,-0.0264 -4.93487,0 -9.58428,1.04266 -13.71115,2.85819 -6.14886,-7.66823 -16.35223,-12.6766 -27.87632,-12.6766 -18.77719,0 -33.99034,13.3018 -33.99034,29.71987 0,3.37495 0.66122,6.60953 1.84631,9.63315 -4.4672,2.27157 -7.23392,5.25616 -7.23392,8.54811 0,5.56026 7.7717,10.28622 18.61448,12.0679 -2.79732,2.80282 -4.41904,6.05462 -4.41904,9.5273 0,10.51229 14.67788,19.02813 32.77964,19.02813 11.59138,0 21.77638,-3.4861 27.60391,-8.75982 6.95325,4.81309 17.7897,7.91295 29.96477,7.91295 19.49884,0 35.53729,-7.93296 37.71324,-18.15479 13.11618,-1.70954 22.60978,-6.73676 22.60978,-12.65013 0,-0.44051 -0.0483,-0.86731 -0.15134,-1.29677 8.85687,-1.6321 14.83106,-4.6299 14.83106,-8.09821 0,-1.41177 -1.01812,-2.76789 -2.78462,-3.9697 2.05341,-1.78787 3.26889,-4.05048 3.26889,-6.51032 0,-5.78767 -6.78856,-10.48004 -15.16399,-10.48004 -1.12226,0 -2.21608,0.0784 -3.26888,0.23819 -2.48063,-5.58166 -10.248,-9.65961 -19.46198,-9.65961 -2.565,0 -5.03504,0.32373 -7.29444,0.89979 -3.97068,-4.8416 -12.03017,-8.17759 -21.33856,-8.17759 -0.0714,0 -0.14061,-3.9e-4 -0.21187,0 -1.19027,-6.76908 -7.84588,-11.96205 -15.92068,-11.96205 z"
       id="path4440"
       inkscape:connector-curvature="0" />
    <path
       sodipodi:nodetypes="cc"
       inkscape:connector-curvature="0"
       id="path4467"
       d="M 78.221935,1007.651 C 146.78462,1022.8127 199.3322,978.49929 298.18256,989.07036"
       style="fill:none;stroke:#000000;stroke-width:3;stroke-linecap:butt;stroke-linejoin:miter;stroke-miterlimit:4;stroke-opacity:1;stroke-dasharray:none;marker-end:url(#Arrow1Mend)" />
  </g>
</svg>
